<mxfile host="app.diagrams.net" agent="Mozilla/5.0 (Macintosh; Intel Mac OS X 10_15_7) AppleWebKit/537.36 (KHTML, like Gecko) Chrome/135.0.0.0 Safari/537.36" version="26.2.10">
  <diagram name="Page-1" id="e7e014a7-5840-1c2e-5031-d8a46d1fe8dd">
    <mxGraphModel dx="1275" dy="755" grid="1" gridSize="10" guides="1" tooltips="1" connect="1" arrows="1" fold="1" page="1" pageScale="1" pageWidth="1169" pageHeight="826" background="none" math="0" shadow="0">
      <root>
        <mxCell id="0" />
        <mxCell id="1" parent="0" />
        <mxCell id="2" value="Análisis" style="swimlane;whiteSpace=wrap" parent="1" vertex="1">
          <mxGeometry x="164.5" y="128" width="280" height="570" as="geometry" />
        </mxCell>
        <mxCell id="5" value="" style="ellipse;shape=startState;fillColor=#000000;strokeColor=#ff0000;" parent="2" vertex="1">
          <mxGeometry x="100" y="40" width="30" height="30" as="geometry" />
        </mxCell>
        <mxCell id="6" value="" style="edgeStyle=elbowEdgeStyle;elbow=horizontal;verticalAlign=bottom;endArrow=open;endSize=8;strokeColor=#FF0000;endFill=1;rounded=0" parent="2" source="5" target="7" edge="1">
          <mxGeometry x="100" y="40" as="geometry">
            <mxPoint x="115" y="110" as="targetPoint" />
          </mxGeometry>
        </mxCell>
        <mxCell id="7" value="QA " style="" parent="2" vertex="1">
          <mxGeometry x="60" y="110" width="110" height="50" as="geometry" />
        </mxCell>
        <mxCell id="8" value="Elige caso de prueba&#xa;a automatizar" style="" parent="2" vertex="1">
          <mxGeometry x="40" y="220" width="150" height="50" as="geometry" />
        </mxCell>
        <mxCell id="9" value="" style="endArrow=open;strokeColor=#FF0000;endFill=1;rounded=0" parent="2" source="7" target="8" edge="1">
          <mxGeometry relative="1" as="geometry" />
        </mxCell>
        <mxCell id="10" value="Entrega caso de prueba&#xa; al Dev" style="" parent="2" vertex="1">
          <mxGeometry x="40" y="325" width="150" height="50" as="geometry" />
        </mxCell>
        <mxCell id="11" value="" style="endArrow=open;strokeColor=#FF0000;endFill=1;rounded=0" parent="2" source="8" target="10" edge="1">
          <mxGeometry relative="1" as="geometry" />
        </mxCell>
        <mxCell id="12" value="" style="edgeStyle=elbowEdgeStyle;elbow=horizontal;strokeColor=#FF0000;endArrow=open;endFill=1;rounded=0" parent="2" source="10" target="7" edge="1">
          <mxGeometry width="100" height="100" relative="1" as="geometry">
            <mxPoint x="160" y="290" as="sourcePoint" />
            <mxPoint x="260" y="190" as="targetPoint" />
            <Array as="points">
              <mxPoint x="30" y="250" />
            </Array>
          </mxGeometry>
        </mxCell>
        <mxCell id="3" value="Implementación" style="swimlane;whiteSpace=wrap" parent="1" vertex="1">
          <mxGeometry x="444.5" y="128" width="280" height="570" as="geometry" />
        </mxCell>
        <mxCell id="13" value="" style="ellipse;shape=startState;fillColor=#000000;strokeColor=#ff0000;" parent="3" vertex="1">
          <mxGeometry x="60" y="40" width="30" height="30" as="geometry" />
        </mxCell>
        <mxCell id="14" value="" style="edgeStyle=elbowEdgeStyle;elbow=horizontal;verticalAlign=bottom;endArrow=open;endSize=8;strokeColor=#FF0000;endFill=1;rounded=0" parent="3" source="13" target="15" edge="1">
          <mxGeometry x="40" y="20" as="geometry">
            <mxPoint x="55" y="90" as="targetPoint" />
          </mxGeometry>
        </mxCell>
        <mxCell id="15" value="Dev" style="" parent="3" vertex="1">
          <mxGeometry x="20" y="110" width="110" height="50" as="geometry" />
        </mxCell>
        <mxCell id="16" value="Desarrolla Test E2E" style="" parent="3" vertex="1">
          <mxGeometry x="20" y="220" width="110" height="50" as="geometry" />
        </mxCell>
        <mxCell id="17" value="" style="endArrow=open;strokeColor=#FF0000;endFill=1;rounded=0" parent="3" source="15" target="16" edge="1">
          <mxGeometry relative="1" as="geometry" />
        </mxCell>
        <mxCell id="18" value="Subir test e2e&#xa;al repositorio" style="" parent="3" vertex="1">
          <mxGeometry x="20" y="325" width="110" height="50" as="geometry" />
        </mxCell>
        <mxCell id="19" value="" style="endArrow=open;strokeColor=#FF0000;endFill=1;rounded=0" parent="3" source="16" target="18" edge="1">
          <mxGeometry relative="1" as="geometry" />
        </mxCell>
        <mxCell id="32" value="" style="endArrow=none;strokeColor=#FF0000;endFill=0;rounded=0;dashed=1;entryX=0.5;entryY=0;entryDx=0;entryDy=0;" parent="3" source="18" edge="1">
          <mxGeometry relative="1" as="geometry">
            <mxPoint x="75" y="432" as="targetPoint" />
          </mxGeometry>
        </mxCell>
        <mxCell id="yEFjHfxqGUTw6uSsKdyn-90" value="Rama" style="edgeLabel;html=1;align=center;verticalAlign=middle;resizable=0;points=[];" vertex="1" connectable="0" parent="32">
          <mxGeometry x="-0.0442" y="1" relative="1" as="geometry">
            <mxPoint as="offset" />
          </mxGeometry>
        </mxCell>
        <mxCell id="yEFjHfxqGUTw6uSsKdyn-57" value="Build" style="rhombus;whiteSpace=wrap;html=1;fontColor=#000000;fillColor=#ffffc0;strokeColor=#ff0000;" vertex="1" parent="3">
          <mxGeometry x="35.5" y="430" width="80" height="40" as="geometry" />
        </mxCell>
        <mxCell id="yEFjHfxqGUTw6uSsKdyn-79" style="edgeStyle=orthogonalEdgeStyle;rounded=0;orthogonalLoop=1;jettySize=auto;html=1;exitX=1;exitY=0.5;exitDx=0;exitDy=0;entryX=0;entryY=0.5;entryDx=0;entryDy=0;endArrow=open;endFill=0;strokeColor=light-dark(#FF9090,#FF9090);" edge="1" parent="3" source="30" target="yEFjHfxqGUTw6uSsKdyn-57">
          <mxGeometry relative="1" as="geometry">
            <Array as="points">
              <mxPoint x="220" y="527" />
              <mxPoint x="220" y="562" />
              <mxPoint x="16" y="562" />
              <mxPoint x="16" y="450" />
            </Array>
          </mxGeometry>
        </mxCell>
        <mxCell id="30" value="Revisar build" style="" parent="3" vertex="1">
          <mxGeometry x="90" y="502" width="110" height="50" as="geometry" />
        </mxCell>
        <mxCell id="yEFjHfxqGUTw6uSsKdyn-58" value="failed" style="edgeStyle=orthogonalEdgeStyle;html=1;align=left;verticalAlign=bottom;endArrow=open;endSize=8;strokeColor=#ff0000;rounded=0;entryX=0;entryY=0.5;entryDx=0;entryDy=0;" edge="1" source="yEFjHfxqGUTw6uSsKdyn-57" parent="3" target="30">
          <mxGeometry x="-0.4634" y="10" relative="1" as="geometry">
            <mxPoint x="65.5" y="542" as="targetPoint" />
            <Array as="points">
              <mxPoint x="76" y="527" />
            </Array>
            <mxPoint as="offset" />
          </mxGeometry>
        </mxCell>
        <mxCell id="4" value="Creación de PR" style="swimlane;whiteSpace=wrap" parent="1" vertex="1">
          <mxGeometry x="724.5" y="128" width="280" height="570" as="geometry" />
        </mxCell>
        <mxCell id="yEFjHfxqGUTw6uSsKdyn-77" style="edgeStyle=orthogonalEdgeStyle;rounded=0;orthogonalLoop=1;jettySize=auto;html=1;exitX=0;exitY=0.5;exitDx=0;exitDy=0;entryX=0;entryY=0.5;entryDx=0;entryDy=0;strokeColor=light-dark(#FF9090,#FF9090);endArrow=open;endFill=0;" edge="1" parent="4" source="33" target="yEFjHfxqGUTw6uSsKdyn-67">
          <mxGeometry relative="1" as="geometry" />
        </mxCell>
        <mxCell id="33" value="Revisar build" style="" parent="4" vertex="1">
          <mxGeometry x="85.5" y="332" width="110" height="50" as="geometry" />
        </mxCell>
        <mxCell id="yEFjHfxqGUTw6uSsKdyn-78" style="rounded=0;orthogonalLoop=1;jettySize=auto;html=1;exitX=0.5;exitY=1;exitDx=0;exitDy=0;entryX=0.5;entryY=0;entryDx=0;entryDy=0;endArrow=none;endFill=0;strokeColor=light-dark(#FF9090,#FF9090);dashed=1;startFill=0;" edge="1" parent="4" source="yEFjHfxqGUTw6uSsKdyn-63" target="yEFjHfxqGUTw6uSsKdyn-67">
          <mxGeometry relative="1" as="geometry" />
        </mxCell>
        <mxCell id="yEFjHfxqGUTw6uSsKdyn-63" value="Crear PR" style="html=1;whiteSpace=wrap;" vertex="1" parent="4">
          <mxGeometry x="85" y="112" width="110" height="50" as="geometry" />
        </mxCell>
        <mxCell id="yEFjHfxqGUTw6uSsKdyn-64" value="" style="ellipse;html=1;shape=startState;fillColor=#000000;strokeColor=#ff0000;" vertex="1" parent="4">
          <mxGeometry x="125.5" y="40" width="30" height="30" as="geometry" />
        </mxCell>
        <mxCell id="yEFjHfxqGUTw6uSsKdyn-65" value="" style="edgeStyle=orthogonalEdgeStyle;html=1;verticalAlign=bottom;endArrow=open;endSize=8;strokeColor=#ff0000;rounded=0;" edge="1" source="yEFjHfxqGUTw6uSsKdyn-64" parent="4">
          <mxGeometry relative="1" as="geometry">
            <mxPoint x="140.5" y="112" as="targetPoint" />
          </mxGeometry>
        </mxCell>
        <mxCell id="yEFjHfxqGUTw6uSsKdyn-67" value="Build" style="rhombus;whiteSpace=wrap;html=1;fontColor=#000000;fillColor=#ffffc0;strokeColor=#ff0000;" vertex="1" parent="4">
          <mxGeometry x="100.5" y="220" width="80" height="40" as="geometry" />
        </mxCell>
        <mxCell id="yEFjHfxqGUTw6uSsKdyn-69" value="failed" style="edgeStyle=orthogonalEdgeStyle;html=1;align=left;verticalAlign=top;endArrow=open;endSize=8;strokeColor=#ff0000;rounded=0;entryX=0.5;entryY=0;entryDx=0;entryDy=0;" edge="1" source="yEFjHfxqGUTw6uSsKdyn-67" parent="4" target="33">
          <mxGeometry x="-1" relative="1" as="geometry">
            <mxPoint x="140.5" y="320" as="targetPoint" />
          </mxGeometry>
        </mxCell>
        <mxCell id="20" value="" style="endArrow=open;strokeColor=#FF0000;endFill=1;rounded=0;entryX=-0.006;entryY=0.43;entryDx=0;entryDy=0;entryPerimeter=0;" parent="1" source="10" target="15" edge="1">
          <mxGeometry relative="1" as="geometry">
            <mxPoint x="430" y="505.625" as="targetPoint" />
            <Array as="points">
              <mxPoint x="400" y="480" />
              <mxPoint x="400" y="260" />
            </Array>
          </mxGeometry>
        </mxCell>
        <mxCell id="yEFjHfxqGUTw6uSsKdyn-41" value="Revisión de PR" style="swimlane;whiteSpace=wrap" vertex="1" parent="1">
          <mxGeometry x="1004.5" y="128" width="280" height="570" as="geometry" />
        </mxCell>
        <mxCell id="yEFjHfxqGUTw6uSsKdyn-88" style="rounded=0;orthogonalLoop=1;jettySize=auto;html=1;exitX=0.5;exitY=1;exitDx=0;exitDy=0;entryX=0.5;entryY=0;entryDx=0;entryDy=0;dashed=1;endArrow=none;startFill=0;strokeColor=light-dark(#FF9090,#FF9090);" edge="1" parent="yEFjHfxqGUTw6uSsKdyn-41" source="yEFjHfxqGUTw6uSsKdyn-42" target="yEFjHfxqGUTw6uSsKdyn-85">
          <mxGeometry relative="1" as="geometry">
            <Array as="points">
              <mxPoint x="140.5" y="392" />
              <mxPoint x="95.5" y="392" />
            </Array>
          </mxGeometry>
        </mxCell>
        <mxCell id="yEFjHfxqGUTw6uSsKdyn-42" value="Corregir PR" style="" vertex="1" parent="yEFjHfxqGUTw6uSsKdyn-41">
          <mxGeometry x="85" y="322" width="110" height="50" as="geometry" />
        </mxCell>
        <mxCell id="yEFjHfxqGUTw6uSsKdyn-73" value="" style="ellipse;html=1;shape=startState;fillColor=#000000;strokeColor=#ff0000;" vertex="1" parent="yEFjHfxqGUTw6uSsKdyn-41">
          <mxGeometry x="125.5" y="40" width="30" height="30" as="geometry" />
        </mxCell>
        <mxCell id="yEFjHfxqGUTw6uSsKdyn-74" value="" style="edgeStyle=orthogonalEdgeStyle;html=1;verticalAlign=bottom;endArrow=open;endSize=8;strokeColor=#ff0000;rounded=0;entryX=0.5;entryY=0;entryDx=0;entryDy=0;" edge="1" source="yEFjHfxqGUTw6uSsKdyn-73" parent="yEFjHfxqGUTw6uSsKdyn-41" target="yEFjHfxqGUTw6uSsKdyn-75">
          <mxGeometry relative="1" as="geometry">
            <mxPoint x="140.5" y="130" as="targetPoint" />
          </mxGeometry>
        </mxCell>
        <mxCell id="yEFjHfxqGUTw6uSsKdyn-83" style="edgeStyle=orthogonalEdgeStyle;rounded=0;orthogonalLoop=1;jettySize=auto;html=1;exitX=0.5;exitY=1;exitDx=0;exitDy=0;entryX=0.5;entryY=0;entryDx=0;entryDy=0;strokeColor=light-dark(#000000,#FF9090);endArrow=none;endFill=0;dashed=1;startFill=0;" edge="1" parent="yEFjHfxqGUTw6uSsKdyn-41" source="yEFjHfxqGUTw6uSsKdyn-75" target="yEFjHfxqGUTw6uSsKdyn-80">
          <mxGeometry relative="1" as="geometry" />
        </mxCell>
        <mxCell id="yEFjHfxqGUTw6uSsKdyn-75" value="QE Review" style="html=1;whiteSpace=wrap;" vertex="1" parent="yEFjHfxqGUTw6uSsKdyn-41">
          <mxGeometry x="85.5" y="110" width="110" height="50" as="geometry" />
        </mxCell>
        <mxCell id="yEFjHfxqGUTw6uSsKdyn-80" value="Revisión" style="rhombus;whiteSpace=wrap;html=1;fontColor=#000000;fillColor=#ffffc0;strokeColor=#ff0000;" vertex="1" parent="yEFjHfxqGUTw6uSsKdyn-41">
          <mxGeometry x="100.5" y="212" width="80" height="40" as="geometry" />
        </mxCell>
        <mxCell id="yEFjHfxqGUTw6uSsKdyn-82" value="failed" style="edgeStyle=orthogonalEdgeStyle;html=1;align=left;verticalAlign=top;endArrow=open;endSize=8;strokeColor=#ff0000;rounded=0;entryX=0.5;entryY=0;entryDx=0;entryDy=0;" edge="1" source="yEFjHfxqGUTw6uSsKdyn-80" parent="yEFjHfxqGUTw6uSsKdyn-41" target="yEFjHfxqGUTw6uSsKdyn-42">
          <mxGeometry x="-1" relative="1" as="geometry">
            <mxPoint x="140.5" y="312" as="targetPoint" />
          </mxGeometry>
        </mxCell>
        <mxCell id="yEFjHfxqGUTw6uSsKdyn-85" value="Build" style="rhombus;whiteSpace=wrap;html=1;fontColor=#000000;fillColor=#ffffc0;strokeColor=#ff0000;" vertex="1" parent="yEFjHfxqGUTw6uSsKdyn-41">
          <mxGeometry x="55.5" y="422" width="80" height="40" as="geometry" />
        </mxCell>
        <mxCell id="yEFjHfxqGUTw6uSsKdyn-86" value="passed" style="edgeStyle=orthogonalEdgeStyle;html=1;align=left;verticalAlign=bottom;endArrow=open;endSize=8;strokeColor=#FF0000;rounded=0;entryX=0;entryY=0.5;entryDx=0;entryDy=0;" edge="1" source="yEFjHfxqGUTw6uSsKdyn-85" parent="yEFjHfxqGUTw6uSsKdyn-41" target="yEFjHfxqGUTw6uSsKdyn-80">
          <mxGeometry x="-0.6745" y="-19" relative="1" as="geometry">
            <mxPoint x="235.5" y="432" as="targetPoint" />
            <Array as="points">
              <mxPoint x="26" y="432" />
              <mxPoint x="26" y="232" />
            </Array>
            <mxPoint as="offset" />
          </mxGeometry>
        </mxCell>
        <mxCell id="yEFjHfxqGUTw6uSsKdyn-47" value="Integración" style="swimlane;whiteSpace=wrap" vertex="1" parent="1">
          <mxGeometry x="1284.5" y="128" width="280" height="570" as="geometry" />
        </mxCell>
        <mxCell id="yEFjHfxqGUTw6uSsKdyn-48" value="Integración a develop" style="" vertex="1" parent="yEFjHfxqGUTw6uSsKdyn-47">
          <mxGeometry x="60" y="405" width="170" height="50" as="geometry" />
        </mxCell>
        <mxCell id="yEFjHfxqGUTw6uSsKdyn-51" value="" style="ellipse;shape=endState;fillColor=#000000;strokeColor=#ff0000" vertex="1" parent="yEFjHfxqGUTw6uSsKdyn-47">
          <mxGeometry x="130" y="500" width="30" height="30" as="geometry" />
        </mxCell>
        <mxCell id="yEFjHfxqGUTw6uSsKdyn-52" value="" style="endArrow=open;strokeColor=#FF0000;endFill=1;rounded=0" edge="1" parent="yEFjHfxqGUTw6uSsKdyn-47" source="yEFjHfxqGUTw6uSsKdyn-48" target="yEFjHfxqGUTw6uSsKdyn-51">
          <mxGeometry relative="1" as="geometry" />
        </mxCell>
        <mxCell id="yEFjHfxqGUTw6uSsKdyn-59" value="passed" style="edgeStyle=orthogonalEdgeStyle;html=1;align=left;verticalAlign=top;endArrow=open;endSize=8;strokeColor=#ff0000;rounded=0;entryX=0;entryY=0.5;entryDx=0;entryDy=0;" edge="1" source="yEFjHfxqGUTw6uSsKdyn-57" parent="1" target="yEFjHfxqGUTw6uSsKdyn-63">
          <mxGeometry x="-1" relative="1" as="geometry">
            <mxPoint x="760" y="260" as="targetPoint" />
            <Array as="points">
              <mxPoint x="700" y="578" />
              <mxPoint x="700" y="265" />
            </Array>
            <mxPoint as="offset" />
          </mxGeometry>
        </mxCell>
        <mxCell id="yEFjHfxqGUTw6uSsKdyn-68" value="passed" style="edgeStyle=orthogonalEdgeStyle;html=1;align=left;verticalAlign=bottom;endArrow=open;endSize=8;strokeColor=#FF0000;rounded=0;entryX=0;entryY=0.5;entryDx=0;entryDy=0;" edge="1" source="yEFjHfxqGUTw6uSsKdyn-67" parent="1" target="yEFjHfxqGUTw6uSsKdyn-75">
          <mxGeometry x="-1" relative="1" as="geometry">
            <mxPoint x="1005" y="368" as="targetPoint" />
            <Array as="points">
              <mxPoint x="980" y="368" />
              <mxPoint x="980" y="263" />
            </Array>
          </mxGeometry>
        </mxCell>
        <mxCell id="yEFjHfxqGUTw6uSsKdyn-81" value="passed" style="edgeStyle=orthogonalEdgeStyle;html=1;align=left;verticalAlign=bottom;endArrow=open;endSize=8;strokeColor=#ff0000;rounded=0;entryX=0.5;entryY=0;entryDx=0;entryDy=0;" edge="1" source="yEFjHfxqGUTw6uSsKdyn-80" parent="1" target="yEFjHfxqGUTw6uSsKdyn-48">
          <mxGeometry x="-1" relative="1" as="geometry">
            <mxPoint x="1285" y="360" as="targetPoint" />
          </mxGeometry>
        </mxCell>
        <mxCell id="yEFjHfxqGUTw6uSsKdyn-87" value="failed" style="edgeStyle=orthogonalEdgeStyle;html=1;align=left;verticalAlign=top;endArrow=open;endSize=8;strokeColor=#ff0000;rounded=0;entryX=0.5;entryY=1;entryDx=0;entryDy=0;" edge="1" source="yEFjHfxqGUTw6uSsKdyn-85" parent="1" target="33">
          <mxGeometry x="-0.7551" y="-30" relative="1" as="geometry">
            <mxPoint x="1100" y="640" as="targetPoint" />
            <Array as="points">
              <mxPoint x="1100" y="620" />
              <mxPoint x="865" y="620" />
            </Array>
            <mxPoint as="offset" />
          </mxGeometry>
        </mxCell>
      </root>
    </mxGraphModel>
  </diagram>
</mxfile>
